<?xml version="1.0" encoding="UTF-8"?>
<svg width="512" height="512" viewBox="0 0 512 512" xmlns="http://www.w3.org/2000/svg">
  <defs>
    <linearGradient id="g" x1="0" y1="0" x2="1" y2="1">
      <stop offset="0%" stop-color="#2c8fff"/>
      <stop offset="100%" stop-color="#34d399"/>
    </linearGradient>
    <filter id="s" x="-20%" y="-20%" width="140%" height="140%">
      <feDropShadow dx="0" dy="6" stdDeviation="8" flood-color="#0f172a" flood-opacity="0.3"/>
    </filter>
  </defs>
  <rect x="48" y="48" width="416" height="416" rx="64" fill="url(#g)" filter="url(#s)"/>
  <!-- Open book -->
  <path d="M128 184c48-16 96-16 144 0v160c-48-16-96-16-144 0z" fill="#ffffff" opacity="0.95"/>
  <path d="M240 184c48-16 96-16 144 0v160c-48-16-96-16-144 0z" fill="#e6f2ff" opacity="0.95"/>
  <!-- Sprout -->
  <circle cx="256" cy="216" r="10" fill="#065f46"/>
  <path d="M256 216c0 40 0 64 0 96" stroke="#065f46" stroke-width="8" stroke-linecap="round"/>
  <path d="M256 236c20-30 56-36 84-22-22 20-52 28-84 22z" fill="#10b981"/>
  <path d="M256 236c-20-30-56-36-84-22 22 20 52 28 84 22z" fill="#34d399"/>
  <!-- SG letters -->
  <text x="256" y="392" text-anchor="middle" font-family="ui-sans-serif, system-ui, -apple-system" font-size="84" font-weight="800" fill="#0f172a" opacity="0.85">SG</text>
  <title>StoryGarden logo</title>
  <desc>A rounded square with gradient blue-to-green, an open book with a sprout, and SG letters.</desc>
</svg>
